<svg xmlns:rdf="http://www.w3.org/1999/02/22-rdf-syntax-ns#" xmlns="http://www.w3.org/2000/svg" height="1157.8" viewBox="0 0 926.27998 926.27992" width="1157.8" version="1.1" xmlns:cc="http://creativecommons.org/ns#" xmlns:dc="http://purl.org/dc/elements/1.1/">
 <path d="m0.0080472 62.934h469.82c43.16-0.29 86.41 2.21 129.02 9.24 43.03 7.12 85.5 18.84 125.11 37.27 34.99 16.17 67.54 37.83 95.24 64.69 28.15 27.29 51 59.9 67.66 95.36 26.42 56.09 37.83 118.28 39.3 179.97 1.11 57.68-5.27 116.08-24.21 170.8-13.57 39.4-33.95 76.6-61.01 108.37-24.59 29.1-54.61 53.42-87.59 72.41-42.16 24.31-88.84 40.02-136.42 49.58-46.74 9.33-94.49 13-142.11 12.73-158.27 0-316.54 0.01-474.81 0-0.01-266.81-0.01-533.61 0-800.42z" fill="#030303"/>
 <path d="m37.528 100.68c144.14-0.04 288.28 0 432.41-0.02 45.89-0.46 91.92 2.69 136.99 11.56 40.11 7.92 79.54 20.45 115.77 39.58 33.73 17.69 64.47 41.36 89.19 70.41 25.39 29.57 44.16 64.53 56.35 101.48 9.31 28.12 15.01 57.35 17.93 86.8 3.26 34.21 3.28 68.74 0.11 102.96-4.97 52.6-18.82 105.07-45.77 150.83-21.79 37.31-52.38 69.34-88.35 93.24-39.27 26.31-84.19 43.24-130.13 53.61-29.98 6.73-60.53 10.84-91.18 12.87-39.28 2.76-78.68 1.53-118.02 1.8-125.1 0-250.19 0.02-375.29 0-0.03-241.71 0-483.41-0.01-725.12z" fill="#fdfdfd"/>
 <path d="m308.61 159.83c58.4-0.06 116.8-0.05 175.2-0.01 38.13 0.21 76.33 3.31 113.72 10.91 36.8 7.57 72.98 19.67 105.48 38.74 30.4 17.68 57.19 41.76 77.08 70.82 23.08 33.35 36.88 72.42 43.62 112.23 2.21 12.43 3.47 25 4.62 37.57-20.06 0.06-40.12 0.01-60.18 0.03-0.05-40.78-0.01-81.56-0.02-122.34-13.58-0.04-27.17-0.19-40.75 0.07 0.16 54.3-0.01 108.61 0.09 162.91 33.98 0.06 67.96-0.02 101.94 0.04-0.56 29.74-3.52 59.54-10.47 88.51-7.02 29.71-18.44 58.54-35.12 84.18-13.04 20.06-29.25 38.06-47.93 53.02-23.38 18.87-50.29 33.03-78.45 43.32-34.75 12.67-71.33 19.74-108.06 23.47-42.37 4.54-85.02 3.33-127.55 3.49-37.74-0.02-75.48 0.03-113.22-0.02-0.07-98.63 0.05-197.25-0.06-295.88 16.95-0.61 34.38 1.5 50.8-3.82 15.85-4.71 29.67-15.79 37.5-30.38 5.86-10.46 8.87-22.27 10.24-34.12 1.85-20.68 0.12-42.59-10.36-60.95-8.34-15.09-23.01-26.38-39.64-30.84-15.75-4.62-32.31-2.52-48.47-3.04-0.06-49.3-0.03-98.61-0.01-147.91z" fill="#d40573"/>
 <path d="m154.37 302.37c17.02-2.46 34.77 0.07 50.29 7.52 19.84 9.34 35.87 26.43 43.91 46.83 7.28 18.2 8.09 38.87 2.49 57.63-5.08 16.88-15.34 32.2-29.16 43.15-15.41 12.49-35.19 19.34-55.01 19.29-18.07-0.06-36.1-5.82-50.76-16.42-16.67-11.94-29.01-29.83-33.96-49.75-4.98-19.52-2.94-40.74 5.71-58.94 12.15-26.13 37.92-45.33 66.49-49.31z" fill="#030303"/>
 <path d="m431.07 307.75c32.4 0.1 64.8-0.18 97.19 0.14-0.13 13.42-0.03 26.84-0.06 40.27-18.88 0.11-37.77-0.01-56.65 0.06-0.07 6.3-0.03 12.6-0.03 18.9 17.87 0.07 35.74-0.03 53.61 0.05 0.02 13.54 0.03 27.08-0.01 40.62-17.87 0.09-35.74-0.06-53.61 0.07 0.01 7.41-0.01 14.82 0.01 22.23 19.95 0.06 39.89 0 59.84 0.04 0.04 13.54 0.04 27.09 0 40.64-33.42 0.03-66.84 0.01-100.25 0-0.1-54.34-0.03-108.68-0.04-163.02z" fill="#fdfdfd"/>
 <path d="m600.02 307.79c19.31-0.12 38.64-0.11 57.96-0.01 16.15 54.38 32.9 108.59 48.89 163.01-14.03 0.02-28.07 0.05-42.1-0.01-3.14-10.56-5.98-21.2-9.39-31.67-17.62 0.11-35.24 0.04-52.86 0.04-3.31 10.49-6.16 21.13-9.38 31.65-14.05 0-28.1 0.03-42.14-0.02 16.22-54.36 32.78-108.63 49.02-162.99z" fill="#fdfdfd"/>
 <path d="m308.59 348.24c9.11-0.02 18.23-0.07 27.34 0.01 8.83 0.23 18.45 2.95 23.81 10.48 6.95 9.68 7.69 22.2 7.45 33.72-0.53 9.8-1.81 20.31-8.05 28.29-5.26 6.72-14.15 9.17-22.35 9.31-9.4 0.13-18.81 0.07-28.22 0.03 0-27.28-0.03-54.56 0.02-81.84z" fill="#d40573"/>
 <path d="m627.61 352.85c0.87-0.11 1.75-0.2 2.65-0.3 4.4 15.4 9.22 30.7 13.27 46.2-9.73-0.08-19.47 0.01-29.2-0.06 4.28-15.32 9.01-30.52 13.28-45.84z" fill="#d40573"/>
 <path d="m96.598 515.69c47-0.08 94.01-0.02 141.01-0.03-0.04 83.69 0.09 167.38-0.07 251.07-46.97-0.04-93.95 0.01-140.92-0.03-0.04-83.67 0-167.34-0.02-251.01z" fill="#030303"/>
</svg>